<svg xmlns="http://www.w3.org/2000/svg" fill="#ff2c3d" viewBox="0 0 200 200" height="200" width="200">
<path fill="##ff2c3d" d="M101.083 70.9004H26.0895C24.4715 70.9004 23.1602 72.2121 23.1602 73.8297C23.1602 75.4477 24.4715 76.759 26.0895 76.759H101.084C102.702 76.759 104.013 75.4473 104.013 73.8297C104.013 72.2121 102.702 70.9004 101.083 70.9004Z"></path>
<path fill="##ff2c3d" d="M101.083 91.4844H26.0895C24.4715 91.4844 23.1602 92.7961 23.1602 94.4137C23.1602 96.0313 24.4715 97.343 26.0895 97.343H101.084C102.702 97.343 104.013 96.0313 104.013 94.4137C104.013 92.7961 102.702 91.4844 101.083 91.4844Z"></path>
<path fill="##ff2c3d" d="M101.083 112.068H26.0895C24.4715 112.068 23.1602 113.38 23.1602 114.998C23.1602 116.615 24.4715 117.927 26.0895 117.927H101.084C102.702 117.927 104.013 116.615 104.013 114.998C104.013 113.38 102.702 112.068 101.083 112.068Z"></path>
<path fill="##ff2c3d" d="M104.013 135.584C104.013 133.966 102.702 132.654 101.084 132.654H26.0895C24.4715 132.654 23.1602 133.966 23.1602 135.584C23.1602 137.201 24.4715 138.513 26.0895 138.513H101.084C102.702 138.513 104.013 137.202 104.013 135.584Z"></path>
<path fill="##ff2c3d" d="M26.0895 162.82C24.4715 162.82 23.1602 164.132 23.1602 165.75C23.1602 167.367 24.4715 168.679 26.0895 168.679H63.6824C65.3004 168.679 66.6117 167.367 66.6117 165.75C66.6117 164.132 65.3004 162.82 63.6824 162.82H26.0895Z"></path>
<path fill="##ff2c3d" d="M134.84 36.2699V26.7645C134.84 23.1434 131.894 20.1973 128.273 20.1973H68.1293C64.5082 20.1973 61.5625 23.1434 61.5625 26.7645V36.2699C61.5625 39.891 64.5082 42.8367 68.1293 42.8367H73.2082C74.8262 42.8367 76.1375 41.525 76.1375 39.9074C76.1375 38.2895 74.8262 36.9781 73.2082 36.9781H68.1293C67.7391 36.9781 67.4215 36.6605 67.4215 36.2703V26.7645C67.4215 26.3742 67.7391 26.0563 68.1293 26.0563H128.273C128.663 26.0563 128.981 26.3738 128.981 26.7645V36.2699C128.981 36.6602 128.663 36.9777 128.273 36.9777H86.9035C85.2855 36.9777 83.9742 38.2895 83.9742 39.907C83.9742 41.525 85.2855 42.8363 86.9035 42.8363H128.273C131.894 42.8371 134.84 39.891 134.84 36.2699Z"></path>
<path fill="##ff2c3d" d="M156.744 178.631C155.126 178.631 153.814 179.943 153.814 181.561V185.505C153.814 190.267 149.941 194.141 145.179 194.141H15.584C10.8227 194.141 6.94844 190.267 6.94844 185.505V44.6984C6.94844 44.0645 7.02266 43.4426 7.15508 42.8375H33.8281C39.3969 42.8375 43.9273 38.307 43.9273 32.7383V6.06562C44.5324 5.9332 45.1539 5.85898 45.7879 5.85898H145.178C149.94 5.85898 153.814 9.73281 153.814 14.4945V53.4953C153.814 55.1133 155.125 56.4246 156.743 56.4246C158.361 56.4246 159.673 55.1129 159.673 53.4953V14.4941C159.673 6.50234 153.171 0 145.179 0H45.7883C41.9168 0 38.2766 1.50781 35.5391 4.24531L5.33477 34.4496C2.59727 37.1871 1.08984 40.827 1.08984 44.6988V185.506C1.08984 193.498 7.5918 200 15.584 200H145.179C153.171 200 159.673 193.498 159.673 185.506V181.561C159.673 179.943 158.362 178.631 156.744 178.631ZM38.0688 10.0016V32.7383C38.0688 35.0766 36.1664 36.9789 33.8281 36.9789H11.0914L38.0688 10.0016Z"></path>
<path fill="#099F4E" d="M196.868 104.686C198.924 101.668 199.456 97.9449 198.328 94.4715C197.199 90.998 194.58 88.2988 191.142 87.066C188.862 86.248 187.34 84.1543 187.268 81.7324C187.157 78.082 185.399 74.757 182.444 72.6102C179.49 70.4637 175.783 69.8195 172.279 70.8422C169.951 71.5211 167.492 70.7211 166.009 68.8051C163.774 65.9164 160.397 64.2598 156.745 64.2598C153.093 64.2598 149.716 65.9164 147.481 68.8051C145.998 70.7215 143.537 71.5203 141.212 70.8422C137.706 69.8187 134.001 70.4637 131.046 72.6102C128.091 74.757 126.333 78.0816 126.222 81.732C126.149 84.1539 124.628 86.2473 122.347 87.0656C118.91 88.2984 116.291 90.9981 115.163 94.4711C114.034 97.9445 114.566 101.668 116.622 104.686C117.987 106.689 117.987 109.276 116.622 111.279C114.566 114.297 114.034 118.02 115.163 121.493C116.291 124.967 118.91 127.666 122.347 128.899C124.628 129.718 126.15 131.811 126.222 134.233C126.324 137.591 127.863 140.746 130.445 142.888C132.149 144.302 134.195 145.187 136.337 145.483V172.154C136.337 174.404 137.558 176.484 139.522 177.582C141.484 178.678 143.896 178.629 145.814 177.448L156.558 170.834C156.733 170.726 156.837 170.775 156.934 170.834L167.677 177.448C169.594 178.628 172.005 178.679 173.969 177.581C175.934 176.484 177.154 174.404 177.154 172.154V145.482C179.296 145.187 181.342 144.302 183.046 142.888C185.628 140.746 187.167 137.591 187.269 134.232C187.342 131.811 188.863 129.717 191.144 128.899C194.581 127.666 197.201 124.966 198.329 121.493C199.457 118.02 198.925 114.296 196.869 111.278C195.503 109.277 195.503 106.689 196.868 104.686ZM170.748 172.459L160.004 165.845C158.007 164.616 155.485 164.614 153.486 165.845L142.742 172.459C142.497 172.608 142.196 172.436 142.196 172.154V144.927C144.21 144.693 146.206 145.513 147.481 147.16C149.717 150.048 153.093 151.705 156.746 151.705C160.397 151.705 163.774 150.048 166.009 147.16C167.284 145.513 169.281 144.693 171.295 144.927V172.154C171.295 172.438 170.989 172.608 170.748 172.459ZM192.026 114.578C193.054 116.087 193.32 117.947 192.756 119.683C192.192 121.419 190.883 122.768 189.164 123.385C184.601 125.021 181.558 129.21 181.412 134.056C181.36 135.759 180.611 137.295 179.303 138.38C177.833 139.6 175.843 140.06 173.92 139.499C169.267 138.141 164.342 139.741 161.375 143.575C160.258 145.018 158.57 145.846 156.745 145.846C154.92 145.846 153.232 145.019 152.114 143.575C149.849 140.647 146.442 139.022 142.887 139.022C141.786 139.022 140.67 139.178 139.57 139.499C137.629 140.064 135.644 139.59 134.186 138.38C132.878 137.295 132.13 135.759 132.078 134.056C131.931 129.21 128.888 125.021 124.325 123.384C122.607 122.768 121.298 121.419 120.734 119.683C120.17 117.947 120.435 116.086 121.463 114.578C124.193 110.571 124.193 105.394 121.463 101.387C120.435 99.8789 120.17 98.018 120.734 96.2816C121.298 94.5457 122.607 93.1965 124.325 92.5805C128.888 90.9434 131.931 86.7547 132.078 81.909C132.133 80.0844 133.012 78.4227 134.488 77.35C135.965 76.277 137.816 75.9551 139.57 76.466C144.222 77.8242 149.148 76.2238 152.114 72.3902C153.231 70.9465 154.919 70.1184 156.745 70.1184C158.57 70.1184 160.258 70.9461 161.375 72.3898C164.342 76.2238 169.265 77.8238 173.92 76.466C175.672 75.9543 177.524 76.2766 179.001 77.3496C180.478 78.4223 181.356 80.0844 181.411 81.9086C181.558 86.7543 184.601 90.9434 189.164 92.5801C190.883 93.1961 192.191 94.5453 192.756 96.2812C193.32 98.0172 193.054 99.8785 192.026 101.387C189.296 105.394 189.296 110.571 192.026 114.578Z"></path>
<path fill="##ff2c3d" d="M156.744 83.4316C143.205 83.4316 132.191 94.4457 132.191 107.984C132.191 121.522 143.205 132.536 156.744 132.536C170.282 132.536 181.296 121.522 181.296 107.984C181.296 94.4457 170.282 83.4316 156.744 83.4316ZM156.744 126.678C146.436 126.678 138.05 118.292 138.05 107.984C138.05 97.677 146.436 89.2906 156.744 89.2906C167.052 89.2906 175.437 97.6766 175.437 107.984C175.437 118.292 167.051 126.678 156.744 126.678Z"></path>
</svg>
