<svg xmlns="http://www.w3.org/2000/svg" fill="#ff2c3d" viewBox="0 0 200 200" height="200" width="200">
<path fill="##ff2c3d" d="M154.166 104.166C143.866 104.166 133.799 107.658 125.849 113.991C114.716 122.683 108.332 135.808 108.332 149.999C108.332 175.274 128.899 195.832 154.165 195.832C158.498 195.832 162.707 195.241 166.657 194.091C186.282 188.566 199.999 170.432 199.999 149.999C199.999 124.724 179.432 104.166 154.166 104.166ZM164.357 186.074C161.132 187.016 157.699 187.499 154.165 187.499C133.49 187.499 116.665 170.674 116.665 149.999C116.665 138.391 121.882 127.657 131.007 120.532C137.516 115.349 145.741 112.499 154.166 112.499C174.841 112.499 191.666 129.324 191.666 149.999C191.666 166.716 180.449 181.549 164.357 186.074Z"></path>
<path fill="##ff2c3d" d="M121.658 113.999C123.125 113.999 124.55 113.224 125.308 111.849C126.425 109.832 125.691 107.299 123.675 106.182C117.95 103.024 111.833 100.632 105.533 98.8992C121.983 90.7074 133.333 73.7574 133.333 54.166C133.333 26.591 110.908 4.16602 83.3332 4.16602C55.7582 4.16602 33.3332 26.591 33.3332 54.166C33.3332 73.7492 44.675 90.6828 61.1 98.8828C47.35 102.658 34.725 109.875 24.3832 120.216C8.6582 135.941 0 156.874 0 179.166V191.666C0 193.966 1.8668 195.833 4.1668 195.833C6.4668 195.833 8.33359 193.966 8.33359 191.666V179.166C8.33359 159.099 16.1336 140.266 30.2836 126.108C44.4336 111.95 63.2754 104.166 83.3336 104.166C96.0418 104.166 108.6 107.391 119.65 113.483C120.283 113.832 120.975 113.999 121.658 113.999ZM41.6668 54.166C41.6668 31.191 60.3582 12.4992 83.3332 12.4992C106.308 12.4992 125 31.191 125 54.166C125 77.141 106.308 95.8328 83.3332 95.8328C60.3582 95.8324 41.6668 77.141 41.6668 54.166Z"></path>
<path fill="##ff2c3d" d="M175.002 145.832H158.335V129.165C158.335 126.865 156.468 124.998 154.168 124.998C151.868 124.998 150.002 126.865 150.002 129.165V145.832H133.335C131.035 145.832 129.168 147.699 129.168 149.999C129.168 152.299 131.035 154.166 133.335 154.166H150.002V170.832C150.002 173.132 151.868 174.999 154.168 174.999C156.468 174.999 158.335 173.132 158.335 170.832V154.166H175.002C177.302 154.166 179.168 152.299 179.168 149.999C179.168 147.699 177.302 145.832 175.002 145.832Z"></path>
</svg>
