<svg xmlns="http://www.w3.org/2000/svg" fill="#ff2c3d" viewBox="0 0 200 200" height="200" width="200">
<g clip-path="url(#clip0_521_196095)">
<path fill="##ff2c3d" d="M113.694 94.8474C114.284 96.0009 115.457 96.6673 116.671 96.6673C117.177 96.6673 117.697 96.5505 118.181 96.304C118.377 96.204 137.998 86.2373 147.674 83.1807C149.427 82.6241 150.401 80.7506 149.844 78.9975C149.29 77.244 147.431 76.2675 145.661 76.821C135.467 80.0444 115.981 89.9443 115.154 90.3642C113.514 91.1974 112.861 93.2044 113.694 94.8474Z"></path>
<path fill="##ff2c3d" d="M116.671 56.6673C117.177 56.6673 117.697 56.5505 118.181 56.304C118.377 56.204 137.997 46.2373 147.674 43.1807C149.427 42.6241 150.4 40.7506 149.844 38.9975C149.29 37.244 147.431 36.2675 145.661 36.821C135.467 40.0444 115.981 49.9443 115.154 50.3642C113.514 51.1974 112.861 53.2041 113.694 54.8474C114.284 56.0005 115.457 56.6673 116.671 56.6673Z"></path>
<path fill="##ff2c3d" d="M196.665 50.0012C194.822 50.0012 193.332 51.4945 193.332 53.3344V183.333C193.332 188.847 188.845 193.333 183.332 193.333H103.333V185.663C108.193 183.963 120.853 180 133.333 180C162.369 180 182.086 186.43 182.282 186.497C183.285 186.83 184.406 186.663 185.282 186.036C186.152 185.41 186.665 184.403 186.665 183.333V36.6681C186.665 35.1048 185.582 33.7513 184.055 33.4146C184.055 33.4146 181.442 32.8314 176.975 32.0111C175.172 31.6779 173.429 32.8779 173.095 34.6845C172.762 36.4978 173.958 38.2345 175.769 38.5677C177.472 38.881 178.899 39.1575 179.999 39.3778V178.903C172.445 176.923 155.672 173.333 133.332 173.333C118.809 173.333 104.543 178.103 100.129 179.72C96.2055 177.987 84.3458 173.333 69.9991 173.333C47.0391 173.333 28.126 177.12 19.9995 179.044V39.2478C26.656 37.6111 46.316 33.3345 69.9991 33.3345C82.1525 33.3345 92.5754 37.1177 96.6656 38.8278V170C96.6656 171.2 97.3121 172.31 98.3555 172.9C99.3988 173.494 100.686 173.477 101.716 172.857C102.046 172.66 135.072 152.934 164.385 143.164C165.748 142.707 166.665 141.437 166.665 140V3.33476C166.665 2.24141 166.128 1.21798 165.228 0.594942C164.335 -0.0284904 163.189 -0.171849 162.158 0.211742C135.489 10.2148 108.503 27.008 108.232 27.1748C106.672 28.1514 106.196 30.208 107.172 31.7681C108.146 33.3283 110.202 33.8048 111.766 32.8283C112.012 32.6716 135.489 18.0651 159.998 8.20855V137.614C137.245 145.521 113.489 158.431 103.332 164.21V36.6681C103.332 35.4048 102.619 34.2513 101.489 33.6849C100.915 33.4017 87.2556 26.6682 69.9991 26.6682C39.8794 26.6682 16.7229 33.1849 15.7495 33.4646C14.3194 33.8712 13.3327 35.1814 13.3327 36.6681V183.334C13.3327 184.377 13.8261 185.364 14.6561 185.994C15.2428 186.437 15.9495 186.667 16.6663 186.667C16.9729 186.667 17.2796 186.624 17.5795 186.537C17.8096 186.474 40.8594 180.001 69.9991 180.001C82.1857 180.001 92.5989 183.794 96.6656 185.497V193.334H16.6663C11.153 193.334 6.66635 188.847 6.66635 183.334V53.3348C6.66635 51.4949 5.17301 50.0016 3.33318 50.0016C1.49335 50.0016 0 51.4949 0 53.3348V183.334C0 192.524 7.4765 200 16.6667 200H183.332C192.522 200 199.999 192.524 199.999 183.334V53.3348C199.998 51.4945 198.509 50.0012 196.665 50.0012Z"></path>
<path fill="##ff2c3d" d="M113.694 74.8474C114.284 76.0009 115.457 76.6673 116.671 76.6673C117.177 76.6673 117.697 76.5505 118.181 76.304C118.377 76.204 137.998 66.2373 147.674 63.1807C149.427 62.6241 150.401 60.7506 149.844 58.9975C149.29 57.244 147.431 56.2675 145.661 56.821C135.467 60.0444 115.981 69.9443 115.154 70.3642C113.514 71.1974 112.861 73.2044 113.694 74.8474Z"></path>
<path fill="##ff2c3d" d="M113.694 114.847C114.284 116.001 115.457 116.667 116.671 116.667C117.177 116.667 117.697 116.551 118.181 116.304C118.377 116.204 137.998 106.237 147.674 103.181C149.427 102.624 150.401 100.751 149.844 98.9975C149.29 97.244 147.431 96.2675 145.661 96.821C135.467 100.044 115.981 109.944 115.154 110.364C113.514 111.197 112.861 113.204 113.694 114.847Z"></path>
<path fill="##ff2c3d" d="M80.7593 61.8619C60.1763 57.0319 36.7862 63.1853 35.803 63.4486C34.0265 63.9252 32.9698 65.7517 33.4464 67.5318C33.8464 69.0216 35.1929 70.0017 36.6632 70.0017C36.9499 70.0017 37.2397 69.965 37.5299 69.8884C37.7534 69.8251 60.2731 63.9017 79.2398 68.3517C81.023 68.7685 82.8265 67.6583 83.2464 65.865C83.6659 64.0752 82.5526 62.2818 80.7593 61.8619Z"></path>
<path fill="##ff2c3d" d="M80.7593 81.8604C60.1763 77.0338 36.7862 83.1838 35.803 83.4471C34.0265 83.9236 32.9698 85.7506 33.4464 87.5302C33.8464 89.0201 35.1929 90.0002 36.6632 90.0002C36.9499 90.0002 37.2397 89.9634 37.5299 89.8869C37.7534 89.8236 60.2731 83.9002 79.2398 88.3502C81.023 88.767 82.8265 87.6568 83.2464 85.8635C83.6659 84.0736 82.5526 82.2803 80.7593 81.8604Z"></path>
<path fill="##ff2c3d" d="M113.694 134.847C114.284 136.001 115.457 136.667 116.671 136.667C117.177 136.667 117.697 136.55 118.181 136.304C118.377 136.204 137.998 126.237 147.674 123.181C149.427 122.624 150.401 120.751 149.844 118.997C149.29 117.244 147.431 116.267 145.661 116.821C135.467 120.044 115.981 129.944 115.154 130.364C113.514 131.197 112.861 133.204 113.694 134.847Z"></path>
<path fill="##ff2c3d" d="M80.7593 101.861C60.1763 97.0344 36.7862 103.181 35.803 103.448C34.0265 103.924 32.9698 105.751 33.4464 107.531C33.8464 109.021 35.1929 110.004 36.6632 110.004C36.9499 110.004 37.2397 109.964 37.5299 109.887C37.7534 109.824 60.2731 103.901 79.2398 108.351C81.023 108.768 82.8265 107.657 83.2464 105.864C83.6659 104.074 82.5526 102.281 80.7593 101.861Z"></path>
<path fill="##ff2c3d" d="M80.7593 141.86C60.1763 137.03 36.7862 143.183 35.803 143.447C34.0265 143.923 32.9698 145.75 33.4464 147.53C33.8464 149.02 35.1929 150.003 36.6632 150.003C36.9499 150.003 37.2397 149.963 37.5299 149.886C37.7534 149.823 60.2731 143.9 79.2398 148.35C81.023 148.763 82.8265 147.656 83.2464 145.863C83.6659 144.073 82.5526 142.28 80.7593 141.86Z"></path>
<path fill="##ff2c3d" d="M80.7593 121.861C60.1763 117.031 36.7862 123.18 35.803 123.447C34.0265 123.924 32.9698 125.751 33.4464 127.53C33.8464 129.02 35.1929 130.004 36.6632 130.004C36.9499 130.004 37.2397 129.964 37.5299 129.887C37.7534 129.824 60.2731 123.9 79.2398 128.35C81.023 128.767 82.8265 127.657 83.2464 125.864C83.6659 124.074 82.5526 122.28 80.7593 121.861Z"></path>
</g>
<defs>
<clipPath id="clip0_521_196095">
<rect fill="white" height="200" width="200"></rect>
</clipPath>
</defs>
</svg>
