<svg xmlns="http://www.w3.org/2000/svg" fill="#ff2c3d" viewBox="0 0 200 200" height="200" width="200">
<path fill="#ff2c3d" d="M128.523 24.7136C126.513 10.6253 114.25 0 99.9994 0C90.835 0 82.1313 4.42233 76.7198 11.8339C75.6145 13.3455 75.9452 15.4657 77.4567 16.5711C78.9633 17.6724 81.0886 17.3457 82.1919 15.8322C86.3342 10.1645 92.99 6.77998 99.9984 6.77998C110.897 6.77998 120.273 14.9017 121.81 25.67C122.052 27.3613 123.503 28.5818 125.163 28.5818C125.321 28.5818 125.484 28.5699 125.646 28.548C127.499 28.2829 128.787 26.5658 128.523 24.7136Z"></path>
<path fill="#ff2c3d" d="M177.48 62.6614L167.311 45.712C166.699 44.6901 165.596 44.0664 164.404 44.0664H154.658C152.787 44.0664 151.269 45.5849 151.269 47.4559C151.269 49.3269 152.787 50.8454 154.658 50.8454H162.485L168.587 61.0149H31.4072L37.5089 50.8454H41.099C42.97 50.8454 44.4885 49.3269 44.4885 47.4559C44.4885 45.5849 42.97 44.0664 41.099 44.0664H35.5902C34.3985 44.0664 33.2951 44.6901 32.6834 45.712L22.5139 62.6614C21.8853 63.7102 21.8704 65.0141 22.4712 66.0768C23.072 67.1394 24.1982 67.7968 25.4207 67.7968H174.573C175.796 67.7968 176.921 67.1394 177.523 66.0768C178.125 65.0141 178.109 63.7082 177.48 62.6614Z"></path>
<path fill="#ff2c3d" d="M160.584 31.405C160.109 30.6393 159.351 30.0961 158.475 29.8915L112.265 19.0835C111.39 18.8779 110.468 19.0308 109.704 19.5036C108.941 19.9783 108.397 20.736 108.192 21.6119L104.707 36.5086C104.28 38.331 105.412 40.1544 107.236 40.5794C109.058 41.0064 110.883 39.8743 111.308 38.0509L114.022 26.4564L153.63 35.7211L147.406 62.3316C146.979 64.1539 148.111 65.9773 149.935 66.4023C150.196 66.4629 150.455 66.4917 150.711 66.4917C152.251 66.4917 153.644 65.437 154.006 63.8749L161.003 33.9643C161.209 33.0894 161.058 32.1677 160.584 31.405Z"></path>
<path fill="#ff2c3d" d="M101.791 39.4193L98.7028 13.2954C98.5976 12.4026 98.1417 11.5873 97.4346 11.0311C96.7275 10.475 95.8347 10.2208 94.9379 10.326L38.2411 17.0276C36.383 17.248 35.0542 18.9324 35.2737 20.7925L40.423 64.3633C40.6276 66.0883 42.0904 67.3565 43.7857 67.3565C43.9178 67.3565 44.0538 67.3476 44.1889 67.3327C46.046 67.1122 47.3748 65.4279 47.1563 63.5678L42.4043 23.3606L92.3688 17.4556L95.0581 40.2128C95.2786 42.0719 96.955 43.3927 98.823 43.1822C100.681 42.9637 102.01 41.2784 101.791 39.4193Z"></path>
<path fill="#ff2c3d" d="M128.602 63.1175L121.873 35.1375C121.663 34.2646 121.113 33.5088 120.348 33.0391C119.582 32.5733 118.663 32.4273 117.785 32.6359L63.1762 45.7688C61.3559 46.2058 60.2356 48.0371 60.6726 49.8574L64.0353 63.8425C64.4723 65.6648 66.3036 66.786 68.1229 66.3461C69.9433 65.9091 71.0635 64.0778 70.6266 62.2575L68.0554 51.5676L116.072 40.0217L122.008 64.7045C122.381 66.2587 123.771 67.3015 125.301 67.3015C125.565 67.3015 125.831 67.2707 126.098 67.2061C127.918 66.7682 129.038 64.9379 128.602 63.1175Z"></path>
<path fill="#ff2c3dE" d="M177.964 64.2333C177.871 62.4318 176.383 61.0176 174.578 61.0176H25.4249C23.6194 61.0176 22.1317 62.4308 22.0384 64.2333L15.2584 196.436C15.2107 197.364 15.5464 198.272 16.1859 198.945C16.8265 199.617 17.7143 200 18.6439 200H181.356C182.284 200 183.173 199.618 183.816 198.945C184.455 198.272 184.791 197.365 184.744 196.436L177.964 64.2333ZM22.2112 193.22L28.6435 67.7966H171.355L177.787 193.22H22.2112Z"></path>
<path fill="#ff2c3d" d="M125.423 74.5762C119.815 74.5762 115.254 79.1375 115.254 84.7456C115.254 90.3538 119.815 94.9151 125.423 94.9151C131.031 94.9151 135.593 90.3538 135.593 84.7456C135.593 79.1375 131.031 74.5762 125.423 74.5762ZM125.423 88.1361C123.553 88.1361 122.034 86.6157 122.034 84.7466C122.034 82.8776 123.554 81.3571 125.423 81.3571C127.292 81.3571 128.813 82.8776 128.813 84.7466C128.813 86.6157 127.292 88.1361 125.423 88.1361Z"></path>
<path fill="#ff2c3d" d="M74.5757 74.5762C68.9676 74.5762 64.4062 79.1375 64.4062 84.7456C64.4062 90.3538 68.9676 94.9151 74.5757 94.9151C80.1838 94.9151 84.7452 90.3538 84.7452 84.7456C84.7452 79.1375 80.1838 74.5762 74.5757 74.5762ZM74.5757 88.1361C72.7067 88.1361 71.1862 86.6157 71.1862 84.7466C71.1862 82.8776 72.7067 81.3571 74.5757 81.3571C76.4448 81.3571 77.9652 82.8776 77.9652 84.7466C77.9652 86.6157 76.4448 88.1361 74.5757 88.1361Z"></path>
<path fill="#ff2c3d" d="M125.42 84.7461H125.159C123.288 84.7461 121.77 86.2646 121.77 88.1356C121.77 88.5984 121.861 89.0403 122.031 89.4425V106.779C122.031 118.928 112.147 128.813 99.9968 128.813C87.847 128.813 77.9626 118.929 77.9626 106.779V88.1366C77.9626 86.2656 76.4441 84.7471 74.5731 84.7471C72.7021 84.7471 71.1836 86.2656 71.1836 88.1366V106.78C71.1836 122.668 84.109 135.593 99.9968 135.593C115.885 135.593 128.81 122.668 128.81 106.78V88.1366C128.81 86.2656 127.291 84.7461 125.42 84.7461Z"></path>
</svg>
