<svg width="654" height="272" viewBox="0 0 654 272" fill="none" xmlns="http://www.w3.org/2000/svg">
<g clip-path="url(#clip0_863_1684)">
<path d="M126 53.5L30 118.5H94V196.5H145V99.5L219 53.5H126Z" fill="#FF2C3D"/>
<path d="M218.306 150.822C217.478 147.326 215.776 144.52 213.2 142.404C210.624 140.288 207.496 139.23 203.816 139.23C199.952 139.23 196.778 140.242 194.294 142.266C191.902 144.29 190.384 147.142 189.74 150.822H218.306ZM189.05 165.312C189.05 176.076 194.11 181.458 204.23 181.458C209.658 181.458 213.752 179.25 216.512 174.834H240.662C235.786 191.026 223.596 199.122 204.092 199.122C198.112 199.122 192.638 198.248 187.67 196.5C182.702 194.66 178.424 192.084 174.836 188.772C171.34 185.46 168.626 181.504 166.694 176.904C164.762 172.304 163.796 167.152 163.796 161.448C163.796 155.56 164.716 150.27 166.556 145.578C168.396 140.794 171.018 136.746 174.422 133.434C177.826 130.122 181.92 127.592 186.704 125.844C191.58 124.004 197.054 123.084 203.126 123.084C209.106 123.084 214.488 124.004 219.272 125.844C224.056 127.592 228.104 130.168 231.416 133.572C234.728 136.976 237.258 141.162 239.006 146.13C240.754 151.006 241.628 156.526 241.628 162.69V165.312H189.05ZM309.312 148.614C304.988 145.67 300.618 144.198 296.202 144.198C293.81 144.198 291.556 144.612 289.44 145.44C287.416 146.268 285.622 147.464 284.058 149.028C282.494 150.5 281.252 152.294 280.332 154.41C279.504 156.434 279.09 158.734 279.09 161.31C279.09 163.794 279.504 166.094 280.332 168.21C281.252 170.234 282.448 172.028 283.92 173.592C285.484 175.064 287.324 176.214 289.44 177.042C291.556 177.87 293.81 178.284 296.202 178.284C300.894 178.284 305.264 176.674 309.312 173.454V194.706C303.148 197.374 297.306 198.708 291.786 198.708C286.634 198.708 281.712 197.834 277.02 196.086C272.42 194.338 268.326 191.854 264.738 188.634C261.242 185.322 258.436 181.412 256.32 176.904C254.204 172.304 253.146 167.198 253.146 161.586C253.146 155.974 254.158 150.868 256.182 146.268C258.206 141.576 260.966 137.574 264.462 134.262C267.958 130.858 272.098 128.236 276.882 126.396C281.758 124.464 286.956 123.498 292.476 123.498C298.548 123.498 304.16 124.786 309.312 127.362V148.614ZM327.062 81.96H352.04V134.676C355.444 130.536 358.894 127.776 362.39 126.396C365.886 124.924 369.98 124.188 374.672 124.188C383.596 124.188 390.312 126.672 394.82 131.64C399.42 136.516 401.72 143.14 401.72 151.512V196.5H376.742V160.758C376.742 157.17 376.466 154.272 375.914 152.064C375.362 149.856 374.442 148.154 373.154 146.958C370.946 145.026 368.278 144.06 365.15 144.06C360.918 144.06 357.652 145.348 355.352 147.924C353.144 150.408 352.04 153.996 352.04 158.688V196.5H327.062V81.96ZM470.452 150.822C469.624 147.326 467.922 144.52 465.346 142.404C462.77 140.288 459.642 139.23 455.962 139.23C452.098 139.23 448.924 140.242 446.44 142.266C444.048 144.29 442.53 147.142 441.886 150.822H470.452ZM441.196 165.312C441.196 176.076 446.256 181.458 456.376 181.458C461.804 181.458 465.898 179.25 468.658 174.834H492.808C487.932 191.026 475.742 199.122 456.238 199.122C450.258 199.122 444.784 198.248 439.816 196.5C434.848 194.66 430.57 192.084 426.982 188.772C423.486 185.46 420.772 181.504 418.84 176.904C416.908 172.304 415.942 167.152 415.942 161.448C415.942 155.56 416.862 150.27 418.702 145.578C420.542 140.794 423.164 136.746 426.568 133.434C429.972 130.122 434.066 127.592 438.85 125.844C443.726 124.004 449.2 123.084 455.272 123.084C461.252 123.084 466.634 124.004 471.418 125.844C476.202 127.592 480.25 130.168 483.562 133.572C486.874 136.976 489.404 141.162 491.152 146.13C492.9 151.006 493.774 156.526 493.774 162.69V165.312H441.196ZM533.03 125.706V196.5H508.052V125.706H533.03ZM506.396 98.52C506.396 96.588 506.764 94.794 507.5 93.138C508.236 91.39 509.248 89.872 510.536 88.584C511.824 87.296 513.296 86.284 514.952 85.548C516.7 84.812 518.54 84.444 520.472 84.444C522.404 84.444 524.198 84.812 525.854 85.548C527.602 86.284 529.12 87.296 530.408 88.584C531.696 89.872 532.708 91.39 533.444 93.138C534.18 94.794 534.548 96.588 534.548 98.52C534.548 100.452 534.18 102.292 533.444 104.04C532.708 105.696 531.696 107.168 530.408 108.456C529.12 109.744 527.602 110.756 525.854 111.492C524.198 112.228 522.404 112.596 520.472 112.596C518.54 112.596 516.7 112.228 514.952 111.492C513.296 110.756 511.824 109.744 510.536 108.456C509.248 107.168 508.236 105.696 507.5 104.04C506.764 102.292 506.396 100.452 506.396 98.52ZM550.099 125.706H575.077V137.298C577.745 133.066 581.011 129.846 584.875 127.638C588.739 125.338 593.247 124.188 598.399 124.188C599.043 124.188 599.733 124.188 600.469 124.188C601.297 124.188 602.217 124.28 603.229 124.464V148.338C599.917 146.682 596.329 145.854 592.465 145.854C586.669 145.854 582.299 147.602 579.355 151.098C576.503 154.502 575.077 159.516 575.077 166.14V196.5H550.099V125.706Z" fill="black"/>
</g>
<defs>
<clipPath id="clip0_863_1684">
<rect width="654" height="272" fill="white"/>
</clipPath>
</defs>
</svg>
